<svg xmlns="http://www.w3.org/2000/svg" viewBox="0 0 512 512">
  <path fill="#25D366" d="M256,0C114.6,0,0,114.6,0,256c0,52.1,15.7,100.4,42.5,140.8L23.3,463.6c-2.5,8.5,5.6,16.6,14.1,14.1l66.8-19.2C144.4,485.3,192.7,501,244.8,501c141.4,0,256-114.6,256-256S397.4,0,256,0z M373.5,338.2c-9.5,26.9-37.6,41.4-63.1,45.7c-16.8,2.7-38.9,4.8-113.1-24.7c-95.4-38-156.4-126.5-161.2-132.5c-4.5-6-37.9-50.3-37.9-95.9c0-45.7,23.5-68.1,32.9-77.5c7.5-7.7,19.8-11.2,31.6-11.2c3.8,0,7.3,0.2,10.4,0.4c9.1,0.4,13.7,0.9,19.8,15.4c7.5,18,25.8,62.9,28.1,67.5c2.3,4.7,4.7,11,1.4,17.1c-3,6.1-5.7,8.8-10.4,14c-4.7,5.2-9.2,9.1-13.9,14.7c-4.3,4.8-9.2,9.9-3.8,18.8c5.4,8.8,24.3,38.6,51.9,62.2c35.7,30.4,64.9,40.4,75.1,44.6c7.7,3.2,16.9,2.4,22.5-3.6c7.1-7.7,15.9-20.5,24.8-33c6.3-8.8,14.2-9.9,22.6-6.7c8.5,3,53.5,25.2,62.7,29.8c9.1,4.7,15.1,6.9,17.4,10.8C383.4,303.5,383,311.3,373.5,338.2z"/>
</svg>